<?xml version="1.0" standalone="no"?>
<!DOCTYPE svg PUBLIC "-//W3C//DTD SVG 20010904//EN"
 "http://www.w3.org/TR/2001/REC-SVG-20010904/DTD/svg10.dtd">
<svg version="1.0" xmlns="http://www.w3.org/2000/svg"
 width="104.000000pt" height="93.000000pt" viewBox="0 0 104.000000 93.000000"
 preserveAspectRatio="xMidYMid meet">

<g transform="translate(0.000000,93.000000) scale(0.100000,-0.100000)"
fill="#000000" stroke="none">
<path d="M0 465 l0 -465 520 0 520 0 0 465 0 465 -520 0 -520 0 0 -465z m309
-46 c83 -34 98 -44 94 -60 -7 -24 -20 -24 -78 1 -58 25 -66 25 -57 1 19 -53
72 -110 126 -136 49 -24 65 -27 129 -23 92 4 157 40 202 110 21 34 36 47 50
45 49 -5 -23 -114 -111 -167 -50 -30 -68 -35 -134 -38 -131 -6 -237 54 -296
168 l-21 41 -26 -60 c-27 -63 -32 -67 -56 -52 -12 8 -8 24 19 93 37 94 49 118
55 118 3 0 49 -18 104 -41z"/>
</g>
</svg>
